<svg xmlns="http://www.w3.org/2000/svg" viewBox="0 0 450 450"><defs><style>.cls-1{fill:#999;}</style></defs><g id="Layer_2" data-name="Layer 2"><g id="Layer_1-2" data-name="Layer 1"><polygon class="cls-1" points="198.38 0 175.25 0 0 175.25 0 198.38 198.38 0"/><polygon class="cls-1" points="123.25 0 100.13 0 0 100.13 0 123.25 123.25 0"/><polygon class="cls-1" points="273.5 0 250.38 0 0 250.38 0 273.5 273.5 0"/><polygon class="cls-1" points="48.13 0 25 0 0 25 0 48.13 48.13 0"/><polygon class="cls-1" points="300 198.88 300 175.75 175.75 300 198.88 300 300 198.88"/><polygon class="cls-1" points="300 274 300 250.88 250.88 300 274 300 300 274"/><polygon class="cls-1" points="300 48.63 300 25.5 25.5 300 48.63 300 300 48.63"/><polygon class="cls-1" points="300 123.75 300 100.63 100.63 300 123.75 300 300 123.75"/><polygon class="cls-1" points="348.38 150 325.25 150 150 325.25 150 348.38 348.38 150"/><polygon class="cls-1" points="273.25 150 250.13 150 150 250.13 150 273.25 273.25 150"/><polygon class="cls-1" points="423.5 150 400.38 150 150 400.38 150 423.5 423.5 150"/><polygon class="cls-1" points="198.13 150 175 150 150 175 150 198.13 198.13 150"/><polygon class="cls-1" points="450 348.88 450 325.75 325.75 450 348.88 450 450 348.88"/><polygon class="cls-1" points="450 424 450 400.88 400.88 450 424 450 450 424"/><polygon class="cls-1" points="450 198.63 450 175.5 175.5 450 198.63 450 450 198.63"/><polygon class="cls-1" points="450 273.75 450 250.63 250.63 450 273.75 450 450 273.75"/></g></g></svg>