<svg xmlns="http://www.w3.org/2000/svg" xmlns:xlink="http://www.w3.org/1999/xlink" viewBox="0 0 1920 1080"><defs><style>.cls-1{fill:none;}.cls-2{opacity:0.1;}.cls-3{fill:#fff;}.cls-4{fill:url(#dotgrid);}</style><pattern id="dotgrid" data-name="dotgrid" width="1322.5" height="900.38" patternUnits="userSpaceOnUse" viewBox="0 0 1322.5 900.38"><rect class="cls-1" width="1322.5" height="900.38"/><g class="cls-2"><circle class="cls-3" cx="120" cy="44" r="2.5"/></g><g class="cls-2"><circle class="cls-3" cx="220" cy="44" r="2.5"/></g><g class="cls-2"><circle class="cls-3" cx="320" cy="44" r="2.5"/></g><g class="cls-2"><circle class="cls-3" cx="420" cy="44" r="2.5"/></g><g class="cls-2"><circle class="cls-3" cx="520" cy="44" r="2.5"/></g><g class="cls-2"><circle class="cls-3" cx="620" cy="44" r="2.5"/></g><g class="cls-2"><circle class="cls-3" cx="720" cy="44" r="2.5"/></g><g class="cls-2"><circle class="cls-3" cx="820" cy="44" r="2.5"/></g><g class="cls-2"><circle class="cls-3" cx="920" cy="44" r="2.5"/></g><g class="cls-2"><circle class="cls-3" cx="1020" cy="44" r="2.5"/></g><g class="cls-2"><circle class="cls-3" cx="1120" cy="44" r="2.5"/></g><g class="cls-2"><circle class="cls-3" cx="1220" cy="44" r="2.5"/></g><g class="cls-2"><circle class="cls-3" cx="1320" cy="44" r="2.5"/></g><g class="cls-2"><circle class="cls-3" cx="120" cy="144" r="2.5"/></g><g class="cls-2"><circle class="cls-3" cx="220" cy="144" r="2.5"/></g><g class="cls-2"><circle class="cls-3" cx="320" cy="144" r="2.5"/></g><g class="cls-2"><circle class="cls-3" cx="420" cy="144" r="2.5"/></g><g class="cls-2"><circle class="cls-3" cx="520" cy="144" r="2.5"/></g><g class="cls-2"><circle class="cls-3" cx="620" cy="144" r="2.5"/></g><g class="cls-2"><circle class="cls-3" cx="720" cy="144" r="2.5"/></g><g class="cls-2"><circle class="cls-3" cx="820" cy="144" r="2.5"/></g><g class="cls-2"><circle class="cls-3" cx="920" cy="144" r="2.5"/></g><g class="cls-2"><circle class="cls-3" cx="1020" cy="144" r="2.5"/></g><g class="cls-2"><circle class="cls-3" cx="1120" cy="144" r="2.5"/></g><g class="cls-2"><circle class="cls-3" cx="1220" cy="144" r="2.5"/></g><g class="cls-2"><circle class="cls-3" cx="1320" cy="144" r="2.5"/></g><g class="cls-2"><circle class="cls-3" cx="120" cy="244" r="2.5"/></g><g class="cls-2"><circle class="cls-3" cx="220" cy="244" r="2.5"/></g><g class="cls-2"><circle class="cls-3" cx="320" cy="244" r="2.5"/></g><g class="cls-2"><circle class="cls-3" cx="420" cy="244" r="2.5"/></g><g class="cls-2"><circle class="cls-3" cx="520" cy="244" r="2.5"/></g><g class="cls-2"><circle class="cls-3" cx="620" cy="244" r="2.5"/></g><g class="cls-2"><circle class="cls-3" cx="720" cy="244" r="2.5"/></g><g class="cls-2"><circle class="cls-3" cx="820" cy="244" r="2.5"/></g><g class="cls-2"><circle class="cls-3" cx="920" cy="244" r="2.5"/></g><g class="cls-2"><circle class="cls-3" cx="1020" cy="244" r="2.5"/></g><g class="cls-2"><circle class="cls-3" cx="1120" cy="244" r="2.5"/></g><g class="cls-2"><circle class="cls-3" cx="1220" cy="244" r="2.5"/></g><g class="cls-2"><circle class="cls-3" cx="1320" cy="244" r="2.5"/></g><g class="cls-2"><circle class="cls-3" cx="120" cy="344" r="2.5"/></g><g class="cls-2"><circle class="cls-3" cx="220" cy="344" r="2.5"/></g><g class="cls-2"><circle class="cls-3" cx="320" cy="344" r="2.5"/></g><g class="cls-2"><circle class="cls-3" cx="420" cy="344" r="2.5"/></g><g class="cls-2"><circle class="cls-3" cx="520" cy="344" r="2.5"/></g><g class="cls-2"><circle class="cls-3" cx="620" cy="344" r="2.5"/></g><g class="cls-2"><circle class="cls-3" cx="720" cy="344" r="2.5"/></g><g class="cls-2"><circle class="cls-3" cx="820" cy="344" r="2.5"/></g><g class="cls-2"><circle class="cls-3" cx="920" cy="344" r="2.5"/></g><g class="cls-2"><circle class="cls-3" cx="1020" cy="344" r="2.5"/></g><g class="cls-2"><circle class="cls-3" cx="1120" cy="344" r="2.5"/></g><g class="cls-2"><circle class="cls-3" cx="1220" cy="344" r="2.5"/></g><g class="cls-2"><circle class="cls-3" cx="1320" cy="344" r="2.5"/></g><g class="cls-2"><circle class="cls-3" cx="120" cy="444" r="2.5"/></g><g class="cls-2"><circle class="cls-3" cx="220" cy="444" r="2.5"/></g><g class="cls-2"><circle class="cls-3" cx="320" cy="444" r="2.5"/></g><g class="cls-2"><circle class="cls-3" cx="420" cy="444" r="2.5"/></g><g class="cls-2"><circle class="cls-3" cx="520" cy="444" r="2.5"/></g><g class="cls-2"><circle class="cls-3" cx="620" cy="444" r="2.5"/></g><g class="cls-2"><circle class="cls-3" cx="720" cy="444" r="2.5"/></g><g class="cls-2"><circle class="cls-3" cx="820" cy="444" r="2.5"/></g><g class="cls-2"><circle class="cls-3" cx="920" cy="444" r="2.5"/></g><g class="cls-2"><circle class="cls-3" cx="1020" cy="444" r="2.5"/></g><g class="cls-2"><circle class="cls-3" cx="1120" cy="444" r="2.5"/></g><g class="cls-2"><circle class="cls-3" cx="1220" cy="444" r="2.5"/></g><g class="cls-2"><circle class="cls-3" cx="1320" cy="444" r="2.5"/></g><g class="cls-2"><circle class="cls-3" cx="120" cy="544" r="2.5"/></g><g class="cls-2"><circle class="cls-3" cx="220" cy="544" r="2.5"/></g><g class="cls-2"><circle class="cls-3" cx="320" cy="544" r="2.5"/></g><g class="cls-2"><circle class="cls-3" cx="420" cy="544" r="2.5"/></g><g class="cls-2"><circle class="cls-3" cx="520" cy="544" r="2.5"/></g><g class="cls-2"><circle class="cls-3" cx="620" cy="544" r="2.5"/></g><g class="cls-2"><circle class="cls-3" cx="720" cy="544" r="2.5"/></g><g class="cls-2"><circle class="cls-3" cx="820" cy="544" r="2.5"/></g><g class="cls-2"><circle class="cls-3" cx="920" cy="544" r="2.5"/></g><g class="cls-2"><circle class="cls-3" cx="1020" cy="544" r="2.5"/></g><g class="cls-2"><circle class="cls-3" cx="1120" cy="544" r="2.5"/></g><g class="cls-2"><circle class="cls-3" cx="1220" cy="544" r="2.5"/></g><g class="cls-2"><circle class="cls-3" cx="1320" cy="544" r="2.5"/></g><g class="cls-2"><circle class="cls-3" cx="120" cy="644" r="2.5"/></g><g class="cls-2"><circle class="cls-3" cx="220" cy="644" r="2.5"/></g><g class="cls-2"><circle class="cls-3" cx="320" cy="644" r="2.5"/></g><g class="cls-2"><circle class="cls-3" cx="420" cy="644" r="2.5"/></g><g class="cls-2"><circle class="cls-3" cx="520" cy="644" r="2.5"/></g><g class="cls-2"><circle class="cls-3" cx="620" cy="644" r="2.5"/></g><g class="cls-2"><circle class="cls-3" cx="720" cy="644" r="2.5"/></g><g class="cls-2"><circle class="cls-3" cx="820" cy="644" r="2.5"/></g><g class="cls-2"><circle class="cls-3" cx="920" cy="644" r="2.5"/></g><g class="cls-2"><circle class="cls-3" cx="1020" cy="644" r="2.5"/></g><g class="cls-2"><circle class="cls-3" cx="1120" cy="644" r="2.5"/></g><g class="cls-2"><circle class="cls-3" cx="1220" cy="644" r="2.5"/></g><g class="cls-2"><circle class="cls-3" cx="1320" cy="644" r="2.5"/></g><g class="cls-2"><circle class="cls-3" cx="120" cy="744" r="2.5"/></g><g class="cls-2"><circle class="cls-3" cx="220" cy="744" r="2.5"/></g><g class="cls-2"><circle class="cls-3" cx="320" cy="744" r="2.5"/></g><g class="cls-2"><circle class="cls-3" cx="420" cy="744" r="2.5"/></g><g class="cls-2"><circle class="cls-3" cx="520" cy="744" r="2.5"/></g><g class="cls-2"><circle class="cls-3" cx="620" cy="744" r="2.5"/></g><g class="cls-2"><circle class="cls-3" cx="720" cy="744" r="2.5"/></g><g class="cls-2"><circle class="cls-3" cx="820" cy="744" r="2.5"/></g><g class="cls-2"><circle class="cls-3" cx="920" cy="744" r="2.5"/></g><g class="cls-2"><circle class="cls-3" cx="1020" cy="744" r="2.5"/></g><g class="cls-2"><circle class="cls-3" cx="1120" cy="744" r="2.5"/></g><g class="cls-2"><circle class="cls-3" cx="1220" cy="744" r="2.5"/></g><g class="cls-2"><circle class="cls-3" cx="1320" cy="744" r="2.5"/></g><g class="cls-2"><circle class="cls-3" cx="120" cy="844" r="2.5"/></g><g class="cls-2"><circle class="cls-3" cx="220" cy="844" r="2.5"/></g><g class="cls-2"><circle class="cls-3" cx="320" cy="844" r="2.5"/></g><g class="cls-2"><circle class="cls-3" cx="420" cy="844" r="2.5"/></g><g class="cls-2"><circle class="cls-3" cx="520" cy="844" r="2.5"/></g><g class="cls-2"><circle class="cls-3" cx="620" cy="844" r="2.5"/></g><g class="cls-2"><circle class="cls-3" cx="720" cy="844" r="2.5"/></g><g class="cls-2"><circle class="cls-3" cx="820" cy="844" r="2.5"/></g><g class="cls-2"><circle class="cls-3" cx="920" cy="844" r="2.5"/></g><g class="cls-2"><circle class="cls-3" cx="1020" cy="844" r="2.5"/></g><g class="cls-2"><circle class="cls-3" cx="1120" cy="844" r="2.5"/></g><g class="cls-2"><circle class="cls-3" cx="1220" cy="844" r="2.5"/></g><g class="cls-2"><circle class="cls-3" cx="1320" cy="844" r="2.5"/></g></pattern></defs><g id="Layer_2" data-name="Layer 2"><g id="Layer_1-2" data-name="Layer 1"><rect class="cls-4" width="1920" height="1080"/></g></g></svg>