<svg xmlns="http://www.w3.org/2000/svg" id="Layer_2" data-name="Layer 2" viewBox="0 0 319.9 317.8"><defs><style>.cls-1{fill:#f2f2f2;stroke-width:0}</style></defs><g id="Layer_1-2" data-name="Layer 1"><path d="m16.5 270.4 17.5 4.9c3.4 1 6.1 2.7 4.8 6.7-1.3 3.8-4.5 3.3-7.6 2.4-7.8-2.2-15.7-4.3-23.5-6.6-7-2-8.9-5.2-7-12.2 2.2-8.2 4.6-16.3 7-24.5.8-3.3 2.6-5.6 6.3-4.4 3.6 1 3.6 4 2.8 7l-5.2 18.2 18.3-10.2c11.2-6.2 22.4-12.6 33.7-18.6 3.2-1.7 4.4-3.6 4.3-7.3l-.1-91c0-5 1.7-8 6-10.3C84 119 94 113.3 104 107.7c3-1.7 6.1-3.2 8.3.4 2.3 3.8-.4 6-3.6 7.8l-27.8 15.6 6.4 3.6 68.9 38.5c2.6 1.4 4.6 1.7 7.3.2 24.2-13.7 48.5-27.1 72.8-40.7l2.5-1.7-25-14c-16.6-9.2-33.3-18.4-49.8-27.8-3-1.7-5.2-1.6-8.2 0-8.7 5.2-17.7 10-26.5 15-3 1.7-6.2 2.9-8.2-1-2-3.5.5-5.7 3.6-7.4l27-15c1.5-1 3.3-3.2 3.3-4.8.3-19.3.2-38.6.2-58 0-.6-.3-1.2-.6-3.2l-12.3 13c-2.3 2.3-5 4.5-8 1.3-3.1-3.1-1.1-5.7 1.3-8l18-18.1c4.6-4.5 8-4.5 12.6-.1L184.9 22c2.2 2.2 3.4 4.7.8 7.4-2.8 3-5.4 1.6-7.7-.8L165.1 15l-.4 5.7-.1 54c0 3.5 1.2 5.2 4.2 6.9 25.5 14 50.9 28.3 76.4 42.3 4.8 2.7 7 6 6.8 11.5-.3 12.2 0 24.4 0 36.5 0 3.3-1.7 5.8-5 5.8-3.4 0-4.7-2.7-4.7-6v-25.5l-.3-5.5-18.8 10.5c-17.3 9.6-34.5 19.4-52 28.7-5.2 2.7-7.6 5.8-6.6 11.6.3 1.4 0 3 0 4.8a62.3 62.3 0 0 1 54.8 47.8c7.1-4 14.1-7.7 21-11.8 1-.7 1.7-3 1.8-4.6v-30.5c0-3.6.4-7.3 5-7.2 4.3.2 4.8 3.8 4.7 7.4l.1 29.5c0 1.6 1 4 2.2 4.8 17.5 10 35.1 19.7 53.8 30l-4.5-16.4c-.2-1-1-2-.7-2.8.8-2 2-4 3-6 2 1 5.2 1.7 5.8 3.3a407 407 0 0 1 8 28.3c1 4-.9 7.3-4.9 8.6a449 449 0 0 1-27.8 7.9c-1.7.4-5-1.3-5.8-3-1.4-2.6.3-5 3.4-6l18.4-5.3-3.4-2.4-48-26.8c-2.9-1.7-5-1.6-7.7 0a321 321 0 0 1-18.7 10.6c-3.1 1.6-4.5 3.5-4.7 7.2a60.2 60.2 0 0 1-43.9 56.3 60 60 0 0 1-76.4-50.5c-.9-8.4-3.8-13.1-11.2-16.3-6-2.5-11.5-8.2-17.2-8.2-5.5 0-11.1 5.3-16.6 8.3a8455 8455 0 0 0-33.7 18.7l-4.9 3.1Zm143.2 37.8a50.7 50.7 0 0 0 51.2-50.9 50.9 50.9 0 0 0-50.8-51.2 50.8 50.8 0 0 0-51.2 50.8 50.7 50.7 0 0 0 50.8 51.3ZM78.2 141c-.4.9-.6 1.2-.6 1.5V229c0 1.1.6 2.8 1.5 3.3l21.2 11.9c8.2-27.9 26.3-43.6 54.2-47.8 2-11.4 1.7-12-8-17.3l-6.5-3.7L78.2 141Z" class="cls-1"/><path d="M162.2 257.5v-14c0-4.6 2.5-7 7.1-7.2h7.5c11 .2 17.2 6.5 17.2 17.5v6.5c0 11.2-6.4 17.6-17.5 17.7-14 .1-14.3-.2-14.3-14v-6.5Zm10-11.5v23.5c4.2-1.5 10.1-2 10.8-4 1.5-5 1.8-11.2.4-16.4-1.4-4.8-7-3-11.3-3ZM144.8 268.3v-6.4H132c-3.3 0-6.2-.7-6.3-4.7 0-4.1 3-4.8 6.2-4.8h12.7v-6.5h-12.4c-3.4 0-6.5-.7-6.5-5 0-4 3.1-4.6 6.4-4.6h13c5.9.2 9 3 9.2 8.9.3 8 .3 16 0 24-.1 5.7-3.5 8.7-9.2 8.8h-13c-3.3 0-6.3-.7-6.4-4.6 0-4.3 3.1-5 6.5-5h12.5Z" class="cls-1"/></g></svg>