<svg xmlns="http://www.w3.org/2000/svg" id="Layer_2" data-name="Layer 2" viewBox="0 0 320.4 319"><defs><style>.cls-1{fill:#f2f2f2;stroke-width:0}</style></defs><g id="Layer_1-2" data-name="Layer 1"><path d="M160 318.8c-43 0-86.3-.4-129.4.2-17.3.2-30.7-13-30.6-30.7.3-85.9.3-171.7 0-257.6A29.9 29.9 0 0 1 30.6 0C117 .4 203.6.4 290 0a29.7 29.7 0 0 1 30.3 30.4c-.3 86-.3 172 0 258.1A29.7 29.7 0 0 1 290 319c-43.3-.6-86.7-.2-130-.2ZM19.2 93.9v194.6c0 8.5 3.3 11.8 11.8 11.8h258.4c8.8 0 12-3.2 12-12v-189c0-1.8-.2-3.5-.3-5.3H19.1Zm0-19h282.1c0-16.2.2-32-.2-47.8a9 9 0 0 0-3.9-6.4c-2.5-1.5-6-2-9-2H32.2c-1.6 0-3.3-.2-5 .2-4.4 1-8 3.3-8 8.2-.2 15.8 0 31.6 0 47.8Z" class="cls-1"/><path d="M132.7 272c-7.7 0-11.8-6.7-8.7-14 6.7-16 13.6-32 20.5-48.1l34.4-80.3c3-6.7 8-9.2 13.3-6.8 5.2 2.4 6.7 7.5 4 14l-54.9 128c-1.8 4.3-4.5 7-8.6 7.2ZM72.2 197l27.4 22c3.3 2.6 6.6 5.1 9.7 7.9 4.4 3.7 5.2 9.2 2 13.3-3.3 4.3-9 5-13.7 1.2A5523.2 5523.2 0 0 1 52 205c-6-4.9-6-11 .2-16 15-12.1 30-24.2 45.2-36.2 4.8-3.8 10.4-3.3 13.8 1 3.3 4.1 2.6 9.8-2 13.6l-33.6 26.9-3.4 2.9ZM248.2 196.9l-33.4-26.7c-1.6-1.2-3.2-2.4-4.6-3.8a9.3 9.3 0 0 1-1-12.7c3-4 8.8-4.9 13-1.6 15.6 12.4 31.2 24.8 46.7 37.4 5.3 4.4 5.3 10.7 0 15a4034 4034 0 0 1-46.5 37.2 9.2 9.2 0 0 1-13.3-1.5c-3.2-4-2.5-9.6 2-13.3l33.8-27.2 3.3-2.8ZM244.4 56.5h-26c-7 0-11.1-3.6-11.2-9.4 0-6 4.2-9.6 11.4-9.7h52c7 0 11.7 4 11.6 9.6 0 5.7-4.7 9.4-11.8 9.5h-26ZM57.2 47c0 5-5 9.6-9.8 9.4a10 10 0 0 1-9.2-9.5c0-5 4.9-9.6 9.8-9.4a10 10 0 0 1 9.2 9.5ZM132.2 46.8a10 10 0 0 1-9.6 9.6 10 10 0 0 1-9.4-9.3 10 10 0 0 1 9.5-9.7 10 10 0 0 1 9.5 9.3ZM76 47c0-5.2 4.3-9.6 9.3-9.5 5 0 9 4.3 9 9.3.1 5.3-4.2 9.7-9.3 9.6-4.9 0-9-4.3-9-9.4Z" class="cls-1"/></g></svg>