<svg xmlns="http://www.w3.org/2000/svg" data-name="Layer 2" viewBox="0 0 320 255.2"><path fill="#f2f2f2" d="M273.9 84c-7.6 2.7-14.6 5-21.3 7.7-1 .5-1.6 3-1.6 4.6-.1 17.9-.3 35.7 0 53.5.1 5.8-2 9.9-6 13.5a88 88 0 0 1-39.4 19.6 207.3 207.3 0 0 1-105.2-1.4 83.5 83.5 0 0 1-34-18.3c-4-3.5-5.9-7.6-5.8-13.1.3-17.8 0-35.7.2-53.5 0-3.7-1-5.5-4.6-6.8C40.2 84 24.4 78 8.4 72.3 3.7 70.5 0 68 0 62.5c0-5.5 3.7-8 8.5-9.7 48-17.3 96-34.8 144-52 2.9-1 6.8-1.1 9.6 0C210.4 18 258.7 35.5 307 53.1c1.8.6 3.7 1.5 5 2.9 4.9 4.6 3.2 12.4-3.2 15.2-4.3 1.8-8.8 3-13 5-1.5.6-3.2 2.5-3.2 4-.2 26.4-.2 53 0 79.4 0 1.7 1.2 3.7 2.5 5l21 21.3c5.1 5.2 5.2 10.1.2 15.3-6.8 6.9-13.6 13.7-20.6 20.4a10 10 0 0 0-3.3 8.4c.2 5 .1 10 0 15-.2 6-4 10.1-9.4 10.1s-9-4-9.1-10.2v-1c2.5-13.6-2.3-24-13.3-32.2-4-3-7.2-7-10.7-10.5-5.2-5.4-5.2-9.9 0-15.2 7-7.3 14.4-14.4 21.4-21.6 1.2-1.2 1.9-3 2.5-4.6.3-.9 0-2 0-3V84Zm3.2-21.2-2-1.3c-38.2-13.8-76.3-27.7-114.4-41.3a13 13 0 0 0-8.1.5c-25.5 9.1-51 18.4-76.4 27.6L37.3 62.4l1.7 1L153.5 106c1.4.5 3.3.1 4.7-.4l34.3-12.2 84.6-30.5ZM79.4 98.5c0 16 .1 31-.1 46-.1 4.3 1.5 6.8 4.8 9a91.4 91.4 0 0 0 34.3 13c21.4 4.2 43 4.7 64.6 1.7a97 97 0 0 0 45.7-16 9.3 9.3 0 0 0 3.3-6.4c.3-14.2.1-28.4 0-42.5l-.3-4-3.3 1-66 24a17.2 17.2 0 0 1-13 .2c-10.9-4.3-21.9-8.2-32.8-12.2L79.4 98.5Zm216.8 95.9-13.3-13.6-12.9 12.6 13.3 14 12.9-13Z" data-name="Layer 1"/></svg>