<svg xmlns="http://www.w3.org/2000/svg" viewBox="0 0 1802 1002"><defs><style>.cls-1{opacity:0.1;}.cls-2{fill:#fff;}</style></defs><g id="Layer_2" data-name="Layer 2"><g id="Layer_1-2" data-name="Layer 1"><g class="cls-1"><circle class="cls-2" cx="1" cy="1" r="1"/><circle class="cls-2" cx="51" cy="1" r="1"/><circle class="cls-2" cx="101" cy="1" r="1"/><circle class="cls-2" cx="151" cy="1" r="1"/><circle class="cls-2" cx="201" cy="1" r="1"/><circle class="cls-2" cx="251" cy="1" r="1"/><circle class="cls-2" cx="301" cy="1" r="1"/><circle class="cls-2" cx="351" cy="1" r="1"/><circle class="cls-2" cx="401" cy="1" r="1"/><circle class="cls-2" cx="451" cy="1" r="1"/><circle class="cls-2" cx="501" cy="1" r="1"/><circle class="cls-2" cx="551" cy="1" r="1"/><circle class="cls-2" cx="601" cy="1" r="1"/><circle class="cls-2" cx="651" cy="1" r="1"/><circle class="cls-2" cx="701" cy="1" r="1"/><circle class="cls-2" cx="751" cy="1" r="1"/><circle class="cls-2" cx="801" cy="1" r="1"/><circle class="cls-2" cx="851" cy="1" r="1"/><circle class="cls-2" cx="901" cy="1" r="1"/><circle class="cls-2" cx="951" cy="1" r="1"/><circle class="cls-2" cx="1001" cy="1" r="1"/><circle class="cls-2" cx="1051" cy="1" r="1"/><circle class="cls-2" cx="1101" cy="1" r="1"/><circle class="cls-2" cx="1151" cy="1" r="1"/><circle class="cls-2" cx="1201" cy="1" r="1"/><circle class="cls-2" cx="1251" cy="1" r="1"/><circle class="cls-2" cx="1301" cy="1" r="1"/><circle class="cls-2" cx="1351" cy="1" r="1"/><circle class="cls-2" cx="1401" cy="1" r="1"/><circle class="cls-2" cx="1451" cy="1" r="1"/><circle class="cls-2" cx="1501" cy="1" r="1"/><circle class="cls-2" cx="1551" cy="1" r="1"/><circle class="cls-2" cx="1601" cy="1" r="1"/><circle class="cls-2" cx="1651" cy="1" r="1"/><circle class="cls-2" cx="1701" cy="1" r="1"/><circle class="cls-2" cx="1751" cy="1" r="1"/><circle class="cls-2" cx="1801" cy="1" r="1"/><circle class="cls-2" cx="1" cy="51" r="1"/><circle class="cls-2" cx="51" cy="51" r="1"/><circle class="cls-2" cx="101" cy="51" r="1"/><circle class="cls-2" cx="151" cy="51" r="1"/><circle class="cls-2" cx="201" cy="51" r="1"/><circle class="cls-2" cx="251" cy="51" r="1"/><circle class="cls-2" cx="301" cy="51" r="1"/><circle class="cls-2" cx="351" cy="51" r="1"/><circle class="cls-2" cx="401" cy="51" r="1"/><circle class="cls-2" cx="451" cy="51" r="1"/><circle class="cls-2" cx="501" cy="51" r="1"/><circle class="cls-2" cx="551" cy="51" r="1"/><circle class="cls-2" cx="601" cy="51" r="1"/><circle class="cls-2" cx="651" cy="51" r="1"/><circle class="cls-2" cx="701" cy="51" r="1"/><circle class="cls-2" cx="751" cy="51" r="1"/><circle class="cls-2" cx="801" cy="51" r="1"/><circle class="cls-2" cx="851" cy="51" r="1"/><circle class="cls-2" cx="901" cy="51" r="1"/><circle class="cls-2" cx="951" cy="51" r="1"/><circle class="cls-2" cx="1001" cy="51" r="1"/><circle class="cls-2" cx="1051" cy="51" r="1"/><circle class="cls-2" cx="1101" cy="51" r="1"/><circle class="cls-2" cx="1151" cy="51" r="1"/><circle class="cls-2" cx="1201" cy="51" r="1"/><circle class="cls-2" cx="1251" cy="51" r="1"/><circle class="cls-2" cx="1301" cy="51" r="1"/><circle class="cls-2" cx="1351" cy="51" r="1"/><circle class="cls-2" cx="1401" cy="51" r="1"/><circle class="cls-2" cx="1451" cy="51" r="1"/><circle class="cls-2" cx="1501" cy="51" r="1"/><circle class="cls-2" cx="1551" cy="51" r="1"/><circle class="cls-2" cx="1601" cy="51" r="1"/><circle class="cls-2" cx="1651" cy="51" r="1"/><circle class="cls-2" cx="1701" cy="51" r="1"/><circle class="cls-2" cx="1751" cy="51" r="1"/><circle class="cls-2" cx="1801" cy="51" r="1"/><circle class="cls-2" cx="1" cy="101" r="1"/><circle class="cls-2" cx="51" cy="101" r="1"/><circle class="cls-2" cx="101" cy="101" r="1"/><circle class="cls-2" cx="151" cy="101" r="1"/><circle class="cls-2" cx="201" cy="101" r="1"/><circle class="cls-2" cx="251" cy="101" r="1"/><circle class="cls-2" cx="301" cy="101" r="1"/><circle class="cls-2" cx="351" cy="101" r="1"/><circle class="cls-2" cx="401" cy="101" r="1"/><circle class="cls-2" cx="451" cy="101" r="1"/><circle class="cls-2" cx="501" cy="101" r="1"/><circle class="cls-2" cx="551" cy="101" r="1"/><circle class="cls-2" cx="601" cy="101" r="1"/><circle class="cls-2" cx="651" cy="101" r="1"/><circle class="cls-2" cx="701" cy="101" r="1"/><circle class="cls-2" cx="751" cy="101" r="1"/><circle class="cls-2" cx="801" cy="101" r="1"/><circle class="cls-2" cx="851" cy="101" r="1"/><circle class="cls-2" cx="901" cy="101" r="1"/><circle class="cls-2" cx="951" cy="101" r="1"/><circle class="cls-2" cx="1001" cy="101" r="1"/><circle class="cls-2" cx="1051" cy="101" r="1"/><circle class="cls-2" cx="1101" cy="101" r="1"/><circle class="cls-2" cx="1151" cy="101" r="1"/><circle class="cls-2" cx="1201" cy="101" r="1"/><circle class="cls-2" cx="1251" cy="101" r="1"/><circle class="cls-2" cx="1301" cy="101" r="1"/><circle class="cls-2" cx="1351" cy="101" r="1"/><circle class="cls-2" cx="1401" cy="101" r="1"/><circle class="cls-2" cx="1451" cy="101" r="1"/><circle class="cls-2" cx="1501" cy="101" r="1"/><circle class="cls-2" cx="1551" cy="101" r="1"/><circle class="cls-2" cx="1601" cy="101" r="1"/><circle class="cls-2" cx="1651" cy="101" r="1"/><circle class="cls-2" cx="1701" cy="101" r="1"/><circle class="cls-2" cx="1751" cy="101" r="1"/><circle class="cls-2" cx="1801" cy="101" r="1"/><circle class="cls-2" cx="1" cy="151" r="1"/><circle class="cls-2" cx="51" cy="151" r="1"/><circle class="cls-2" cx="101" cy="151" r="1"/><circle class="cls-2" cx="151" cy="151" r="1"/><circle class="cls-2" cx="201" cy="151" r="1"/><circle class="cls-2" cx="251" cy="151" r="1"/><circle class="cls-2" cx="301" cy="151" r="1"/><circle class="cls-2" cx="351" cy="151" r="1"/><circle class="cls-2" cx="401" cy="151" r="1"/><circle class="cls-2" cx="451" cy="151" r="1"/><circle class="cls-2" cx="501" cy="151" r="1"/><circle class="cls-2" cx="551" cy="151" r="1"/><circle class="cls-2" cx="601" cy="151" r="1"/><circle class="cls-2" cx="651" cy="151" r="1"/><circle class="cls-2" cx="701" cy="151" r="1"/><circle class="cls-2" cx="751" cy="151" r="1"/><circle class="cls-2" cx="801" cy="151" r="1"/><circle class="cls-2" cx="851" cy="151" r="1"/><circle class="cls-2" cx="901" cy="151" r="1"/><circle class="cls-2" cx="951" cy="151" r="1"/><circle class="cls-2" cx="1001" cy="151" r="1"/><circle class="cls-2" cx="1051" cy="151" r="1"/><circle class="cls-2" cx="1101" cy="151" r="1"/><circle class="cls-2" cx="1151" cy="151" r="1"/><circle class="cls-2" cx="1201" cy="151" r="1"/><circle class="cls-2" cx="1251" cy="151" r="1"/><circle class="cls-2" cx="1301" cy="151" r="1"/><circle class="cls-2" cx="1351" cy="151" r="1"/><circle class="cls-2" cx="1401" cy="151" r="1"/><circle class="cls-2" cx="1451" cy="151" r="1"/><circle class="cls-2" cx="1501" cy="151" r="1"/><circle class="cls-2" cx="1551" cy="151" r="1"/><circle class="cls-2" cx="1601" cy="151" r="1"/><circle class="cls-2" cx="1651" cy="151" r="1"/><circle class="cls-2" cx="1701" cy="151" r="1"/><circle class="cls-2" cx="1751" cy="151" r="1"/><circle class="cls-2" cx="1801" cy="151" r="1"/><circle class="cls-2" cx="1" cy="201" r="1"/><circle class="cls-2" cx="51" cy="201" r="1"/><circle class="cls-2" cx="101" cy="201" r="1"/><circle class="cls-2" cx="151" cy="201" r="1"/><circle class="cls-2" cx="201" cy="201" r="1"/><circle class="cls-2" cx="251" cy="201" r="1"/><circle class="cls-2" cx="301" cy="201" r="1"/><circle class="cls-2" cx="351" cy="201" r="1"/><circle class="cls-2" cx="401" cy="201" r="1"/><circle class="cls-2" cx="451" cy="201" r="1"/><circle class="cls-2" cx="501" cy="201" r="1"/><circle class="cls-2" cx="551" cy="201" r="1"/><circle class="cls-2" cx="601" cy="201" r="1"/><circle class="cls-2" cx="651" cy="201" r="1"/><circle class="cls-2" cx="701" cy="201" r="1"/><circle class="cls-2" cx="751" cy="201" r="1"/><circle class="cls-2" cx="801" cy="201" r="1"/><circle class="cls-2" cx="851" cy="201" r="1"/><circle class="cls-2" cx="901" cy="201" r="1"/><circle class="cls-2" cx="951" cy="201" r="1"/><circle class="cls-2" cx="1001" cy="201" r="1"/><circle class="cls-2" cx="1051" cy="201" r="1"/><circle class="cls-2" cx="1101" cy="201" r="1"/><circle class="cls-2" cx="1151" cy="201" r="1"/><circle class="cls-2" cx="1201" cy="201" r="1"/><circle class="cls-2" cx="1251" cy="201" r="1"/><circle class="cls-2" cx="1301" cy="201" r="1"/><circle class="cls-2" cx="1351" cy="201" r="1"/><circle class="cls-2" cx="1401" cy="201" r="1"/><circle class="cls-2" cx="1451" cy="201" r="1"/><circle class="cls-2" cx="1501" cy="201" r="1"/><circle class="cls-2" cx="1551" cy="201" r="1"/><circle class="cls-2" cx="1601" cy="201" r="1"/><circle class="cls-2" cx="1651" cy="201" r="1"/><circle class="cls-2" cx="1701" cy="201" r="1"/><circle class="cls-2" cx="1751" cy="201" r="1"/><circle class="cls-2" cx="1801" cy="201" r="1"/><circle class="cls-2" cx="1" cy="251" r="1"/><circle class="cls-2" cx="51" cy="251" r="1"/><circle class="cls-2" cx="101" cy="251" r="1"/><circle class="cls-2" cx="151" cy="251" r="1"/><circle class="cls-2" cx="201" cy="251" r="1"/><circle class="cls-2" cx="251" cy="251" r="1"/><circle class="cls-2" cx="301" cy="251" r="1"/><circle class="cls-2" cx="351" cy="251" r="1"/><circle class="cls-2" cx="401" cy="251" r="1"/><circle class="cls-2" cx="451" cy="251" r="1"/><circle class="cls-2" cx="501" cy="251" r="1"/><circle class="cls-2" cx="551" cy="251" r="1"/><circle class="cls-2" cx="601" cy="251" r="1"/><circle class="cls-2" cx="651" cy="251" r="1"/><circle class="cls-2" cx="701" cy="251" r="1"/><circle class="cls-2" cx="751" cy="251" r="1"/><circle class="cls-2" cx="801" cy="251" r="1"/><circle class="cls-2" cx="851" cy="251" r="1"/><circle class="cls-2" cx="901" cy="251" r="1"/><circle class="cls-2" cx="951" cy="251" r="1"/><circle class="cls-2" cx="1001" cy="251" r="1"/><circle class="cls-2" cx="1051" cy="251" r="1"/><circle class="cls-2" cx="1101" cy="251" r="1"/><circle class="cls-2" cx="1151" cy="251" r="1"/><circle class="cls-2" cx="1201" cy="251" r="1"/><circle class="cls-2" cx="1251" cy="251" r="1"/><circle class="cls-2" cx="1301" cy="251" r="1"/><circle class="cls-2" cx="1351" cy="251" r="1"/><circle class="cls-2" cx="1401" cy="251" r="1"/><circle class="cls-2" cx="1451" cy="251" r="1"/><circle class="cls-2" cx="1501" cy="251" r="1"/><circle class="cls-2" cx="1551" cy="251" r="1"/><circle class="cls-2" cx="1601" cy="251" r="1"/><circle class="cls-2" cx="1651" cy="251" r="1"/><circle class="cls-2" cx="1701" cy="251" r="1"/><circle class="cls-2" cx="1751" cy="251" r="1"/><circle class="cls-2" cx="1801" cy="251" r="1"/><circle class="cls-2" cx="1" cy="301" r="1"/><circle class="cls-2" cx="51" cy="301" r="1"/><circle class="cls-2" cx="101" cy="301" r="1"/><circle class="cls-2" cx="151" cy="301" r="1"/><circle class="cls-2" cx="201" cy="301" r="1"/><circle class="cls-2" cx="251" cy="301" r="1"/><circle class="cls-2" cx="301" cy="301" r="1"/><circle class="cls-2" cx="351" cy="301" r="1"/><circle class="cls-2" cx="401" cy="301" r="1"/><circle class="cls-2" cx="451" cy="301" r="1"/><circle class="cls-2" cx="501" cy="301" r="1"/><circle class="cls-2" cx="551" cy="301" r="1"/><circle class="cls-2" cx="601" cy="301" r="1"/><circle class="cls-2" cx="651" cy="301" r="1"/><circle class="cls-2" cx="701" cy="301" r="1"/><circle class="cls-2" cx="751" cy="301" r="1"/><circle class="cls-2" cx="801" cy="301" r="1"/><circle class="cls-2" cx="851" cy="301" r="1"/><circle class="cls-2" cx="901" cy="301" r="1"/><circle class="cls-2" cx="951" cy="301" r="1"/><circle class="cls-2" cx="1001" cy="301" r="1"/><circle class="cls-2" cx="1051" cy="301" r="1"/><circle class="cls-2" cx="1101" cy="301" r="1"/><circle class="cls-2" cx="1151" cy="301" r="1"/><circle class="cls-2" cx="1201" cy="301" r="1"/><circle class="cls-2" cx="1251" cy="301" r="1"/><circle class="cls-2" cx="1301" cy="301" r="1"/><circle class="cls-2" cx="1351" cy="301" r="1"/><circle class="cls-2" cx="1401" cy="301" r="1"/><circle class="cls-2" cx="1451" cy="301" r="1"/><circle class="cls-2" cx="1501" cy="301" r="1"/><circle class="cls-2" cx="1551" cy="301" r="1"/><circle class="cls-2" cx="1601" cy="301" r="1"/><circle class="cls-2" cx="1651" cy="301" r="1"/><circle class="cls-2" cx="1701" cy="301" r="1"/><circle class="cls-2" cx="1751" cy="301" r="1"/><circle class="cls-2" cx="1801" cy="301" r="1"/><circle class="cls-2" cx="1" cy="351" r="1"/><circle class="cls-2" cx="51" cy="351" r="1"/><circle class="cls-2" cx="101" cy="351" r="1"/><circle class="cls-2" cx="151" cy="351" r="1"/><circle class="cls-2" cx="201" cy="351" r="1"/><circle class="cls-2" cx="251" cy="351" r="1"/><circle class="cls-2" cx="301" cy="351" r="1"/><circle class="cls-2" cx="351" cy="351" r="1"/><circle class="cls-2" cx="401" cy="351" r="1"/><circle class="cls-2" cx="451" cy="351" r="1"/><circle class="cls-2" cx="501" cy="351" r="1"/><circle class="cls-2" cx="551" cy="351" r="1"/><circle class="cls-2" cx="601" cy="351" r="1"/><circle class="cls-2" cx="651" cy="351" r="1"/><circle class="cls-2" cx="701" cy="351" r="1"/><circle class="cls-2" cx="751" cy="351" r="1"/><circle class="cls-2" cx="801" cy="351" r="1"/><circle class="cls-2" cx="851" cy="351" r="1"/><circle class="cls-2" cx="901" cy="351" r="1"/><circle class="cls-2" cx="951" cy="351" r="1"/><circle class="cls-2" cx="1001" cy="351" r="1"/><circle class="cls-2" cx="1051" cy="351" r="1"/><circle class="cls-2" cx="1101" cy="351" r="1"/><circle class="cls-2" cx="1151" cy="351" r="1"/><circle class="cls-2" cx="1201" cy="351" r="1"/><circle class="cls-2" cx="1251" cy="351" r="1"/><circle class="cls-2" cx="1301" cy="351" r="1"/><circle class="cls-2" cx="1351" cy="351" r="1"/><circle class="cls-2" cx="1401" cy="351" r="1"/><circle class="cls-2" cx="1451" cy="351" r="1"/><circle class="cls-2" cx="1501" cy="351" r="1"/><circle class="cls-2" cx="1551" cy="351" r="1"/><circle class="cls-2" cx="1601" cy="351" r="1"/><circle class="cls-2" cx="1651" cy="351" r="1"/><circle class="cls-2" cx="1701" cy="351" r="1"/><circle class="cls-2" cx="1751" cy="351" r="1"/><circle class="cls-2" cx="1801" cy="351" r="1"/><circle class="cls-2" cx="1" cy="401" r="1"/><circle class="cls-2" cx="51" cy="401" r="1"/><circle class="cls-2" cx="101" cy="401" r="1"/><circle class="cls-2" cx="151" cy="401" r="1"/><circle class="cls-2" cx="201" cy="401" r="1"/><circle class="cls-2" cx="251" cy="401" r="1"/><circle class="cls-2" cx="301" cy="401" r="1"/><circle class="cls-2" cx="351" cy="401" r="1"/><circle class="cls-2" cx="401" cy="401" r="1"/><circle class="cls-2" cx="451" cy="401" r="1"/><circle class="cls-2" cx="501" cy="401" r="1"/><circle class="cls-2" cx="551" cy="401" r="1"/><circle class="cls-2" cx="601" cy="401" r="1"/><circle class="cls-2" cx="651" cy="401" r="1"/><circle class="cls-2" cx="701" cy="401" r="1"/><circle class="cls-2" cx="751" cy="401" r="1"/><circle class="cls-2" cx="801" cy="401" r="1"/><circle class="cls-2" cx="851" cy="401" r="1"/><circle class="cls-2" cx="901" cy="401" r="1"/><circle class="cls-2" cx="951" cy="401" r="1"/><circle class="cls-2" cx="1001" cy="401" r="1"/><circle class="cls-2" cx="1051" cy="401" r="1"/><circle class="cls-2" cx="1101" cy="401" r="1"/><circle class="cls-2" cx="1151" cy="401" r="1"/><circle class="cls-2" cx="1201" cy="401" r="1"/><circle class="cls-2" cx="1251" cy="401" r="1"/><circle class="cls-2" cx="1301" cy="401" r="1"/><circle class="cls-2" cx="1351" cy="401" r="1"/><circle class="cls-2" cx="1401" cy="401" r="1"/><circle class="cls-2" cx="1451" cy="401" r="1"/><circle class="cls-2" cx="1501" cy="401" r="1"/><circle class="cls-2" cx="1551" cy="401" r="1"/><circle class="cls-2" cx="1601" cy="401" r="1"/><circle class="cls-2" cx="1651" cy="401" r="1"/><circle class="cls-2" cx="1701" cy="401" r="1"/><circle class="cls-2" cx="1751" cy="401" r="1"/><circle class="cls-2" cx="1801" cy="401" r="1"/><circle class="cls-2" cx="1" cy="451" r="1"/><circle class="cls-2" cx="51" cy="451" r="1"/><circle class="cls-2" cx="101" cy="451" r="1"/><circle class="cls-2" cx="151" cy="451" r="1"/><circle class="cls-2" cx="201" cy="451" r="1"/><circle class="cls-2" cx="251" cy="451" r="1"/><circle class="cls-2" cx="301" cy="451" r="1"/><circle class="cls-2" cx="351" cy="451" r="1"/><circle class="cls-2" cx="401" cy="451" r="1"/><circle class="cls-2" cx="451" cy="451" r="1"/><circle class="cls-2" cx="501" cy="451" r="1"/><circle class="cls-2" cx="551" cy="451" r="1"/><circle class="cls-2" cx="601" cy="451" r="1"/><circle class="cls-2" cx="651" cy="451" r="1"/><circle class="cls-2" cx="701" cy="451" r="1"/><circle class="cls-2" cx="751" cy="451" r="1"/><circle class="cls-2" cx="801" cy="451" r="1"/><circle class="cls-2" cx="851" cy="451" r="1"/><circle class="cls-2" cx="901" cy="451" r="1"/><circle class="cls-2" cx="951" cy="451" r="1"/><circle class="cls-2" cx="1001" cy="451" r="1"/><circle class="cls-2" cx="1051" cy="451" r="1"/><circle class="cls-2" cx="1101" cy="451" r="1"/><circle class="cls-2" cx="1151" cy="451" r="1"/><circle class="cls-2" cx="1201" cy="451" r="1"/><circle class="cls-2" cx="1251" cy="451" r="1"/><circle class="cls-2" cx="1301" cy="451" r="1"/><circle class="cls-2" cx="1351" cy="451" r="1"/><circle class="cls-2" cx="1401" cy="451" r="1"/><circle class="cls-2" cx="1451" cy="451" r="1"/><circle class="cls-2" cx="1501" cy="451" r="1"/><circle class="cls-2" cx="1551" cy="451" r="1"/><circle class="cls-2" cx="1601" cy="451" r="1"/><circle class="cls-2" cx="1651" cy="451" r="1"/><circle class="cls-2" cx="1701" cy="451" r="1"/><circle class="cls-2" cx="1751" cy="451" r="1"/><circle class="cls-2" cx="1801" cy="451" r="1"/><circle class="cls-2" cx="1" cy="501" r="1"/><circle class="cls-2" cx="51" cy="501" r="1"/><circle class="cls-2" cx="101" cy="501" r="1"/><circle class="cls-2" cx="151" cy="501" r="1"/><circle class="cls-2" cx="201" cy="501" r="1"/><circle class="cls-2" cx="251" cy="501" r="1"/><circle class="cls-2" cx="301" cy="501" r="1"/><circle class="cls-2" cx="351" cy="501" r="1"/><circle class="cls-2" cx="401" cy="501" r="1"/><circle class="cls-2" cx="451" cy="501" r="1"/><circle class="cls-2" cx="501" cy="501" r="1"/><circle class="cls-2" cx="551" cy="501" r="1"/><circle class="cls-2" cx="601" cy="501" r="1"/><circle class="cls-2" cx="651" cy="501" r="1"/><circle class="cls-2" cx="701" cy="501" r="1"/><circle class="cls-2" cx="751" cy="501" r="1"/><circle class="cls-2" cx="801" cy="501" r="1"/><circle class="cls-2" cx="851" cy="501" r="1"/><circle class="cls-2" cx="901" cy="501" r="1"/><circle class="cls-2" cx="951" cy="501" r="1"/><circle class="cls-2" cx="1001" cy="501" r="1"/><circle class="cls-2" cx="1051" cy="501" r="1"/><circle class="cls-2" cx="1101" cy="501" r="1"/><circle class="cls-2" cx="1151" cy="501" r="1"/><circle class="cls-2" cx="1201" cy="501" r="1"/><circle class="cls-2" cx="1251" cy="501" r="1"/><circle class="cls-2" cx="1301" cy="501" r="1"/><circle class="cls-2" cx="1351" cy="501" r="1"/><circle class="cls-2" cx="1401" cy="501" r="1"/><circle class="cls-2" cx="1451" cy="501" r="1"/><circle class="cls-2" cx="1501" cy="501" r="1"/><circle class="cls-2" cx="1551" cy="501" r="1"/><circle class="cls-2" cx="1601" cy="501" r="1"/><circle class="cls-2" cx="1651" cy="501" r="1"/><circle class="cls-2" cx="1701" cy="501" r="1"/><circle class="cls-2" cx="1751" cy="501" r="1"/><circle class="cls-2" cx="1801" cy="501" r="1"/><circle class="cls-2" cx="1" cy="551" r="1"/><circle class="cls-2" cx="51" cy="551" r="1"/><circle class="cls-2" cx="101" cy="551" r="1"/><circle class="cls-2" cx="151" cy="551" r="1"/><circle class="cls-2" cx="201" cy="551" r="1"/><circle class="cls-2" cx="251" cy="551" r="1"/><circle class="cls-2" cx="301" cy="551" r="1"/><circle class="cls-2" cx="351" cy="551" r="1"/><circle class="cls-2" cx="401" cy="551" r="1"/><circle class="cls-2" cx="451" cy="551" r="1"/><circle class="cls-2" cx="501" cy="551" r="1"/><circle class="cls-2" cx="551" cy="551" r="1"/><circle class="cls-2" cx="601" cy="551" r="1"/><circle class="cls-2" cx="651" cy="551" r="1"/><circle class="cls-2" cx="701" cy="551" r="1"/><circle class="cls-2" cx="751" cy="551" r="1"/><circle class="cls-2" cx="801" cy="551" r="1"/><circle class="cls-2" cx="851" cy="551" r="1"/><circle class="cls-2" cx="901" cy="551" r="1"/><circle class="cls-2" cx="951" cy="551" r="1"/><circle class="cls-2" cx="1001" cy="551" r="1"/><circle class="cls-2" cx="1051" cy="551" r="1"/><circle class="cls-2" cx="1101" cy="551" r="1"/><circle class="cls-2" cx="1151" cy="551" r="1"/><circle class="cls-2" cx="1201" cy="551" r="1"/><circle class="cls-2" cx="1251" cy="551" r="1"/><circle class="cls-2" cx="1301" cy="551" r="1"/><circle class="cls-2" cx="1351" cy="551" r="1"/><circle class="cls-2" cx="1401" cy="551" r="1"/><circle class="cls-2" cx="1451" cy="551" r="1"/><circle class="cls-2" cx="1501" cy="551" r="1"/><circle class="cls-2" cx="1551" cy="551" r="1"/><circle class="cls-2" cx="1601" cy="551" r="1"/><circle class="cls-2" cx="1651" cy="551" r="1"/><circle class="cls-2" cx="1701" cy="551" r="1"/><circle class="cls-2" cx="1751" cy="551" r="1"/><circle class="cls-2" cx="1801" cy="551" r="1"/><circle class="cls-2" cx="1" cy="601" r="1"/><circle class="cls-2" cx="51" cy="601" r="1"/><circle class="cls-2" cx="101" cy="601" r="1"/><circle class="cls-2" cx="151" cy="601" r="1"/><circle class="cls-2" cx="201" cy="601" r="1"/><circle class="cls-2" cx="251" cy="601" r="1"/><circle class="cls-2" cx="301" cy="601" r="1"/><circle class="cls-2" cx="351" cy="601" r="1"/><circle class="cls-2" cx="401" cy="601" r="1"/><circle class="cls-2" cx="451" cy="601" r="1"/><circle class="cls-2" cx="501" cy="601" r="1"/><circle class="cls-2" cx="551" cy="601" r="1"/><circle class="cls-2" cx="601" cy="601" r="1"/><circle class="cls-2" cx="651" cy="601" r="1"/><circle class="cls-2" cx="701" cy="601" r="1"/><circle class="cls-2" cx="751" cy="601" r="1"/><circle class="cls-2" cx="801" cy="601" r="1"/><circle class="cls-2" cx="851" cy="601" r="1"/><circle class="cls-2" cx="901" cy="601" r="1"/><circle class="cls-2" cx="951" cy="601" r="1"/><circle class="cls-2" cx="1001" cy="601" r="1"/><circle class="cls-2" cx="1051" cy="601" r="1"/><circle class="cls-2" cx="1101" cy="601" r="1"/><circle class="cls-2" cx="1151" cy="601" r="1"/><circle class="cls-2" cx="1201" cy="601" r="1"/><circle class="cls-2" cx="1251" cy="601" r="1"/><circle class="cls-2" cx="1301" cy="601" r="1"/><circle class="cls-2" cx="1351" cy="601" r="1"/><circle class="cls-2" cx="1401" cy="601" r="1"/><circle class="cls-2" cx="1451" cy="601" r="1"/><circle class="cls-2" cx="1501" cy="601" r="1"/><circle class="cls-2" cx="1551" cy="601" r="1"/><circle class="cls-2" cx="1601" cy="601" r="1"/><circle class="cls-2" cx="1651" cy="601" r="1"/><circle class="cls-2" cx="1701" cy="601" r="1"/><circle class="cls-2" cx="1751" cy="601" r="1"/><circle class="cls-2" cx="1801" cy="601" r="1"/><circle class="cls-2" cx="1" cy="651" r="1"/><circle class="cls-2" cx="51" cy="651" r="1"/><circle class="cls-2" cx="101" cy="651" r="1"/><circle class="cls-2" cx="151" cy="651" r="1"/><circle class="cls-2" cx="201" cy="651" r="1"/><circle class="cls-2" cx="251" cy="651" r="1"/><circle class="cls-2" cx="301" cy="651" r="1"/><circle class="cls-2" cx="351" cy="651" r="1"/><circle class="cls-2" cx="401" cy="651" r="1"/><circle class="cls-2" cx="451" cy="651" r="1"/><circle class="cls-2" cx="501" cy="651" r="1"/><circle class="cls-2" cx="551" cy="651" r="1"/><circle class="cls-2" cx="601" cy="651" r="1"/><circle class="cls-2" cx="651" cy="651" r="1"/><circle class="cls-2" cx="701" cy="651" r="1"/><circle class="cls-2" cx="751" cy="651" r="1"/><circle class="cls-2" cx="801" cy="651" r="1"/><circle class="cls-2" cx="851" cy="651" r="1"/><circle class="cls-2" cx="901" cy="651" r="1"/><circle class="cls-2" cx="951" cy="651" r="1"/><circle class="cls-2" cx="1001" cy="651" r="1"/><circle class="cls-2" cx="1051" cy="651" r="1"/><circle class="cls-2" cx="1101" cy="651" r="1"/><circle class="cls-2" cx="1151" cy="651" r="1"/><circle class="cls-2" cx="1201" cy="651" r="1"/><circle class="cls-2" cx="1251" cy="651" r="1"/><circle class="cls-2" cx="1301" cy="651" r="1"/><circle class="cls-2" cx="1351" cy="651" r="1"/><circle class="cls-2" cx="1401" cy="651" r="1"/><circle class="cls-2" cx="1451" cy="651" r="1"/><circle class="cls-2" cx="1501" cy="651" r="1"/><circle class="cls-2" cx="1551" cy="651" r="1"/><circle class="cls-2" cx="1601" cy="651" r="1"/><circle class="cls-2" cx="1651" cy="651" r="1"/><circle class="cls-2" cx="1701" cy="651" r="1"/><circle class="cls-2" cx="1751" cy="651" r="1"/><circle class="cls-2" cx="1801" cy="651" r="1"/><circle class="cls-2" cx="1" cy="701" r="1"/><circle class="cls-2" cx="51" cy="701" r="1"/><circle class="cls-2" cx="101" cy="701" r="1"/><circle class="cls-2" cx="151" cy="701" r="1"/><circle class="cls-2" cx="201" cy="701" r="1"/><circle class="cls-2" cx="251" cy="701" r="1"/><circle class="cls-2" cx="301" cy="701" r="1"/><circle class="cls-2" cx="351" cy="701" r="1"/><circle class="cls-2" cx="401" cy="701" r="1"/><circle class="cls-2" cx="451" cy="701" r="1"/><circle class="cls-2" cx="501" cy="701" r="1"/><circle class="cls-2" cx="551" cy="701" r="1"/><circle class="cls-2" cx="601" cy="701" r="1"/><circle class="cls-2" cx="651" cy="701" r="1"/><circle class="cls-2" cx="701" cy="701" r="1"/><circle class="cls-2" cx="751" cy="701" r="1"/><circle class="cls-2" cx="801" cy="701" r="1"/><circle class="cls-2" cx="851" cy="701" r="1"/><circle class="cls-2" cx="901" cy="701" r="1"/><circle class="cls-2" cx="951" cy="701" r="1"/><circle class="cls-2" cx="1001" cy="701" r="1"/><circle class="cls-2" cx="1051" cy="701" r="1"/><circle class="cls-2" cx="1101" cy="701" r="1"/><circle class="cls-2" cx="1151" cy="701" r="1"/><circle class="cls-2" cx="1201" cy="701" r="1"/><circle class="cls-2" cx="1251" cy="701" r="1"/><circle class="cls-2" cx="1301" cy="701" r="1"/><circle class="cls-2" cx="1351" cy="701" r="1"/><circle class="cls-2" cx="1401" cy="701" r="1"/><circle class="cls-2" cx="1451" cy="701" r="1"/><circle class="cls-2" cx="1501" cy="701" r="1"/><circle class="cls-2" cx="1551" cy="701" r="1"/><circle class="cls-2" cx="1601" cy="701" r="1"/><circle class="cls-2" cx="1651" cy="701" r="1"/><circle class="cls-2" cx="1701" cy="701" r="1"/><circle class="cls-2" cx="1751" cy="701" r="1"/><circle class="cls-2" cx="1801" cy="701" r="1"/><circle class="cls-2" cx="1" cy="751" r="1"/><circle class="cls-2" cx="51" cy="751" r="1"/><circle class="cls-2" cx="101" cy="751" r="1"/><circle class="cls-2" cx="151" cy="751" r="1"/><circle class="cls-2" cx="201" cy="751" r="1"/><circle class="cls-2" cx="251" cy="751" r="1"/><circle class="cls-2" cx="301" cy="751" r="1"/><circle class="cls-2" cx="351" cy="751" r="1"/><circle class="cls-2" cx="401" cy="751" r="1"/><circle class="cls-2" cx="451" cy="751" r="1"/><circle class="cls-2" cx="501" cy="751" r="1"/><circle class="cls-2" cx="551" cy="751" r="1"/><circle class="cls-2" cx="601" cy="751" r="1"/><circle class="cls-2" cx="651" cy="751" r="1"/><circle class="cls-2" cx="701" cy="751" r="1"/><circle class="cls-2" cx="751" cy="751" r="1"/><circle class="cls-2" cx="801" cy="751" r="1"/><circle class="cls-2" cx="851" cy="751" r="1"/><circle class="cls-2" cx="901" cy="751" r="1"/><circle class="cls-2" cx="951" cy="751" r="1"/><circle class="cls-2" cx="1001" cy="751" r="1"/><circle class="cls-2" cx="1051" cy="751" r="1"/><circle class="cls-2" cx="1101" cy="751" r="1"/><circle class="cls-2" cx="1151" cy="751" r="1"/><circle class="cls-2" cx="1201" cy="751" r="1"/><circle class="cls-2" cx="1251" cy="751" r="1"/><circle class="cls-2" cx="1301" cy="751" r="1"/><circle class="cls-2" cx="1351" cy="751" r="1"/><circle class="cls-2" cx="1401" cy="751" r="1"/><circle class="cls-2" cx="1451" cy="751" r="1"/><circle class="cls-2" cx="1501" cy="751" r="1"/><circle class="cls-2" cx="1551" cy="751" r="1"/><circle class="cls-2" cx="1601" cy="751" r="1"/><circle class="cls-2" cx="1651" cy="751" r="1"/><circle class="cls-2" cx="1701" cy="751" r="1"/><circle class="cls-2" cx="1751" cy="751" r="1"/><circle class="cls-2" cx="1801" cy="751" r="1"/><circle class="cls-2" cx="1" cy="801" r="1"/><circle class="cls-2" cx="51" cy="801" r="1"/><circle class="cls-2" cx="101" cy="801" r="1"/><circle class="cls-2" cx="151" cy="801" r="1"/><circle class="cls-2" cx="201" cy="801" r="1"/><circle class="cls-2" cx="251" cy="801" r="1"/><circle class="cls-2" cx="301" cy="801" r="1"/><circle class="cls-2" cx="351" cy="801" r="1"/><circle class="cls-2" cx="401" cy="801" r="1"/><circle class="cls-2" cx="451" cy="801" r="1"/><circle class="cls-2" cx="501" cy="801" r="1"/><circle class="cls-2" cx="551" cy="801" r="1"/><circle class="cls-2" cx="601" cy="801" r="1"/><circle class="cls-2" cx="651" cy="801" r="1"/><circle class="cls-2" cx="701" cy="801" r="1"/><circle class="cls-2" cx="751" cy="801" r="1"/><circle class="cls-2" cx="801" cy="801" r="1"/><circle class="cls-2" cx="851" cy="801" r="1"/><circle class="cls-2" cx="901" cy="801" r="1"/><circle class="cls-2" cx="951" cy="801" r="1"/><circle class="cls-2" cx="1001" cy="801" r="1"/><circle class="cls-2" cx="1051" cy="801" r="1"/><circle class="cls-2" cx="1101" cy="801" r="1"/><circle class="cls-2" cx="1151" cy="801" r="1"/><circle class="cls-2" cx="1201" cy="801" r="1"/><circle class="cls-2" cx="1251" cy="801" r="1"/><circle class="cls-2" cx="1301" cy="801" r="1"/><circle class="cls-2" cx="1351" cy="801" r="1"/><circle class="cls-2" cx="1401" cy="801" r="1"/><circle class="cls-2" cx="1451" cy="801" r="1"/><circle class="cls-2" cx="1501" cy="801" r="1"/><circle class="cls-2" cx="1551" cy="801" r="1"/><circle class="cls-2" cx="1601" cy="801" r="1"/><circle class="cls-2" cx="1651" cy="801" r="1"/><circle class="cls-2" cx="1701" cy="801" r="1"/><circle class="cls-2" cx="1751" cy="801" r="1"/><circle class="cls-2" cx="1801" cy="801" r="1"/><circle class="cls-2" cx="1" cy="851" r="1"/><circle class="cls-2" cx="51" cy="851" r="1"/><circle class="cls-2" cx="101" cy="851" r="1"/><circle class="cls-2" cx="151" cy="851" r="1"/><circle class="cls-2" cx="201" cy="851" r="1"/><circle class="cls-2" cx="251" cy="851" r="1"/><circle class="cls-2" cx="301" cy="851" r="1"/><circle class="cls-2" cx="351" cy="851" r="1"/><circle class="cls-2" cx="401" cy="851" r="1"/><circle class="cls-2" cx="451" cy="851" r="1"/><circle class="cls-2" cx="501" cy="851" r="1"/><circle class="cls-2" cx="551" cy="851" r="1"/><circle class="cls-2" cx="601" cy="851" r="1"/><circle class="cls-2" cx="651" cy="851" r="1"/><circle class="cls-2" cx="701" cy="851" r="1"/><circle class="cls-2" cx="751" cy="851" r="1"/><circle class="cls-2" cx="801" cy="851" r="1"/><circle class="cls-2" cx="851" cy="851" r="1"/><circle class="cls-2" cx="901" cy="851" r="1"/><circle class="cls-2" cx="951" cy="851" r="1"/><circle class="cls-2" cx="1001" cy="851" r="1"/><circle class="cls-2" cx="1051" cy="851" r="1"/><circle class="cls-2" cx="1101" cy="851" r="1"/><circle class="cls-2" cx="1151" cy="851" r="1"/><circle class="cls-2" cx="1201" cy="851" r="1"/><circle class="cls-2" cx="1251" cy="851" r="1"/><circle class="cls-2" cx="1301" cy="851" r="1"/><circle class="cls-2" cx="1351" cy="851" r="1"/><circle class="cls-2" cx="1401" cy="851" r="1"/><circle class="cls-2" cx="1451" cy="851" r="1"/><circle class="cls-2" cx="1501" cy="851" r="1"/><circle class="cls-2" cx="1551" cy="851" r="1"/><circle class="cls-2" cx="1601" cy="851" r="1"/><circle class="cls-2" cx="1651" cy="851" r="1"/><circle class="cls-2" cx="1701" cy="851" r="1"/><circle class="cls-2" cx="1751" cy="851" r="1"/><circle class="cls-2" cx="1801" cy="851" r="1"/><circle class="cls-2" cx="1" cy="901" r="1"/><circle class="cls-2" cx="51" cy="901" r="1"/><circle class="cls-2" cx="101" cy="901" r="1"/><circle class="cls-2" cx="151" cy="901" r="1"/><circle class="cls-2" cx="201" cy="901" r="1"/><circle class="cls-2" cx="251" cy="901" r="1"/><circle class="cls-2" cx="301" cy="901" r="1"/><circle class="cls-2" cx="351" cy="901" r="1"/><circle class="cls-2" cx="401" cy="901" r="1"/><circle class="cls-2" cx="451" cy="901" r="1"/><circle class="cls-2" cx="501" cy="901" r="1"/><circle class="cls-2" cx="551" cy="901" r="1"/><circle class="cls-2" cx="601" cy="901" r="1"/><circle class="cls-2" cx="651" cy="901" r="1"/><circle class="cls-2" cx="701" cy="901" r="1"/><circle class="cls-2" cx="751" cy="901" r="1"/><circle class="cls-2" cx="801" cy="901" r="1"/><circle class="cls-2" cx="851" cy="901" r="1"/><circle class="cls-2" cx="901" cy="901" r="1"/><circle class="cls-2" cx="951" cy="901" r="1"/><circle class="cls-2" cx="1001" cy="901" r="1"/><circle class="cls-2" cx="1051" cy="901" r="1"/><circle class="cls-2" cx="1101" cy="901" r="1"/><circle class="cls-2" cx="1151" cy="901" r="1"/><circle class="cls-2" cx="1201" cy="901" r="1"/><circle class="cls-2" cx="1251" cy="901" r="1"/><circle class="cls-2" cx="1301" cy="901" r="1"/><circle class="cls-2" cx="1351" cy="901" r="1"/><circle class="cls-2" cx="1401" cy="901" r="1"/><circle class="cls-2" cx="1451" cy="901" r="1"/><circle class="cls-2" cx="1501" cy="901" r="1"/><circle class="cls-2" cx="1551" cy="901" r="1"/><circle class="cls-2" cx="1601" cy="901" r="1"/><circle class="cls-2" cx="1651" cy="901" r="1"/><circle class="cls-2" cx="1701" cy="901" r="1"/><circle class="cls-2" cx="1751" cy="901" r="1"/><circle class="cls-2" cx="1801" cy="901" r="1"/><circle class="cls-2" cx="1" cy="951" r="1"/><circle class="cls-2" cx="51" cy="951" r="1"/><circle class="cls-2" cx="101" cy="951" r="1"/><circle class="cls-2" cx="151" cy="951" r="1"/><circle class="cls-2" cx="201" cy="951" r="1"/><circle class="cls-2" cx="251" cy="951" r="1"/><circle class="cls-2" cx="301" cy="951" r="1"/><circle class="cls-2" cx="351" cy="951" r="1"/><circle class="cls-2" cx="401" cy="951" r="1"/><circle class="cls-2" cx="451" cy="951" r="1"/><circle class="cls-2" cx="501" cy="951" r="1"/><circle class="cls-2" cx="551" cy="951" r="1"/><circle class="cls-2" cx="601" cy="951" r="1"/><circle class="cls-2" cx="651" cy="951" r="1"/><circle class="cls-2" cx="701" cy="951" r="1"/><circle class="cls-2" cx="751" cy="951" r="1"/><circle class="cls-2" cx="801" cy="951" r="1"/><circle class="cls-2" cx="851" cy="951" r="1"/><circle class="cls-2" cx="901" cy="951" r="1"/><circle class="cls-2" cx="951" cy="951" r="1"/><circle class="cls-2" cx="1001" cy="951" r="1"/><circle class="cls-2" cx="1051" cy="951" r="1"/><circle class="cls-2" cx="1101" cy="951" r="1"/><circle class="cls-2" cx="1151" cy="951" r="1"/><circle class="cls-2" cx="1201" cy="951" r="1"/><circle class="cls-2" cx="1251" cy="951" r="1"/><circle class="cls-2" cx="1301" cy="951" r="1"/><circle class="cls-2" cx="1351" cy="951" r="1"/><circle class="cls-2" cx="1401" cy="951" r="1"/><circle class="cls-2" cx="1451" cy="951" r="1"/><circle class="cls-2" cx="1501" cy="951" r="1"/><circle class="cls-2" cx="1551" cy="951" r="1"/><circle class="cls-2" cx="1601" cy="951" r="1"/><circle class="cls-2" cx="1651" cy="951" r="1"/><circle class="cls-2" cx="1701" cy="951" r="1"/><circle class="cls-2" cx="1751" cy="951" r="1"/><circle class="cls-2" cx="1801" cy="951" r="1"/><circle class="cls-2" cx="1" cy="1001" r="1"/><circle class="cls-2" cx="51" cy="1001" r="1"/><circle class="cls-2" cx="101" cy="1001" r="1"/><circle class="cls-2" cx="151" cy="1001" r="1"/><circle class="cls-2" cx="201" cy="1001" r="1"/><circle class="cls-2" cx="251" cy="1001" r="1"/><circle class="cls-2" cx="301" cy="1001" r="1"/><circle class="cls-2" cx="351" cy="1001" r="1"/><circle class="cls-2" cx="401" cy="1001" r="1"/><circle class="cls-2" cx="451" cy="1001" r="1"/><circle class="cls-2" cx="501" cy="1001" r="1"/><circle class="cls-2" cx="551" cy="1001" r="1"/><circle class="cls-2" cx="601" cy="1001" r="1"/><circle class="cls-2" cx="651" cy="1001" r="1"/><circle class="cls-2" cx="701" cy="1001" r="1"/><circle class="cls-2" cx="751" cy="1001" r="1"/><circle class="cls-2" cx="801" cy="1001" r="1"/><circle class="cls-2" cx="851" cy="1001" r="1"/><circle class="cls-2" cx="901" cy="1001" r="1"/><circle class="cls-2" cx="951" cy="1001" r="1"/><circle class="cls-2" cx="1001" cy="1001" r="1"/><circle class="cls-2" cx="1051" cy="1001" r="1"/><circle class="cls-2" cx="1101" cy="1001" r="1"/><circle class="cls-2" cx="1151" cy="1001" r="1"/><circle class="cls-2" cx="1201" cy="1001" r="1"/><circle class="cls-2" cx="1251" cy="1001" r="1"/><circle class="cls-2" cx="1301" cy="1001" r="1"/><circle class="cls-2" cx="1351" cy="1001" r="1"/><circle class="cls-2" cx="1401" cy="1001" r="1"/><circle class="cls-2" cx="1451" cy="1001" r="1"/><circle class="cls-2" cx="1501" cy="1001" r="1"/><circle class="cls-2" cx="1551" cy="1001" r="1"/><circle class="cls-2" cx="1601" cy="1001" r="1"/><circle class="cls-2" cx="1651" cy="1001" r="1"/><circle class="cls-2" cx="1701" cy="1001" r="1"/><circle class="cls-2" cx="1751" cy="1001" r="1"/><circle class="cls-2" cx="1801" cy="1001" r="1"/></g></g></g></svg>