<svg xmlns="http://www.w3.org/2000/svg" viewBox="0 0 512 512"><defs><style>.cls-1{fill:none;}.cls-2{fill:#333;}</style></defs><g id="Layer_2" data-name="Layer 2"><g id="Layer_1-2" data-name="Layer 1"><polygon class="cls-1" points="177.57 0 0 177.57 0 267.29 267.29 0 177.57 0"/><polygon class="cls-1" points="323.86 0 0 323.86 0 413.57 413.57 0 323.86 0"/><polygon class="cls-1" points="194.14 512 512 194.14 512 104.43 104.43 512 194.14 512"/><polygon class="cls-1" points="486.72 512 512 486.72 512 397 397 512 486.72 512"/><polygon class="cls-1" points="31.29 0 0 31.29 0 121 121 0 31.29 0"/><polygon class="cls-1" points="340.43 512 512 340.43 512 250.71 250.71 512 340.43 512"/><polygon class="cls-1" points="512 47.86 512 0 470.14 0 0 470.14 0 512 47.86 512 512 47.86"/><polygon class="cls-2" points="0 0 0 31.29 31.29 0 0 0"/><polygon class="cls-2" points="121 0 0 121 0 177.57 177.57 0 121 0"/><polygon class="cls-2" points="267.29 0 0 267.29 0 323.86 323.86 0 267.29 0"/><polygon class="cls-2" points="413.57 0 0 413.57 0 470.14 470.14 0 413.57 0"/><polygon class="cls-2" points="104.43 512 512 104.43 512 47.86 47.86 512 104.43 512"/><polygon class="cls-2" points="250.71 512 512 250.71 512 194.14 194.14 512 250.71 512"/><polygon class="cls-2" points="397 512 512 397 512 340.43 340.43 512 397 512"/><polygon class="cls-2" points="512 512 512 486.72 486.72 512 512 512"/></g></g></svg>