<svg xmlns="http://www.w3.org/2000/svg" viewBox="0 0 570.85 36.18"><defs><style>.a{fill:#00061f;}.b{fill:#df5e5e;}</style></defs><path class="a" d="M117.07.18l18,14,18-14.08V35.87h-6V13.16c-4.74,2.49-8,6.16-12.09,8.72l-11.73-9.1V36h-6.13Z"/><path class="a" d="M55.43,0l18,36H66.75l-4-6.86H48.12L44.71,36h-7.2Zm4.48,22.49c-1.57-3.15-2.9-5.82-4.5-9l-3.78,9Z"/><path class="a" d="M166.25.2h5.95c0,7,0,13.78,0,20.61a21.66,21.66,0,0,0,.63,5.14c.82,3.19,3.13,4.74,6.67,4.81,3.36.06,6.25-1.58,7.14-4.35a16.61,16.61,0,0,0,.67-4.77c.07-5.86,0-11.72,0-17.58V.24h6.07c.08,1,.21,1.92.21,2.87,0,6,0,12,0,18,0,.37,0,.74,0,1.12-.35,12-8.23,15.19-18,13.52-5.58-1-9.15-5.14-9.37-11.06C166,16.59,166.25,8.5,166.25.2Z"/><path class="a" d="M0,6.09V.24C6.32.24,12.52,0,18.69.34c4.45.28,7.38,3.33,8.25,7.47,1,4.74.1,8.94-3.84,12.12a25.67,25.67,0,0,1-2.88,1.75L27.81,36H21.18l-7.91-14.4H.11V15.35h9.94c2.12,0,4.24.07,6.36,0,3.11-.13,4.77-1.75,4.78-4.55s-1.76-4.54-4.78-4.66c-3.62-.14-7.24,0-10.86,0Z"/><path class="a" d="M205.66,31.49l4.51-3.66c2.71,2,5.54,2.91,8.8,1.66a4.14,4.14,0,0,0,2.81-3.6c.32-2.35-.85-3.95-3.67-4.83-2.48-.79-5.12-1.2-7.48-2.24-6.1-2.68-7.4-10.06-2.88-14.92A11.38,11.38,0,0,1,214.2.42c5.19-.93,9.86,0,13.64,4.42l-4.56,3.64c-2.63-2.12-5.46-3-8.71-1.85a3.87,3.87,0,0,0-2.95,3.83c-.09,2.18,1.29,3.13,3.06,3.65,1.43.42,2.93.61,4.39.91,6.13,1.29,9.46,5,9.36,10.31A11,11,0,0,1,219,35.84C214,36.72,209.41,35.9,205.66,31.49Z"/><path class="a" d="M104.65,5l-4.42,3.42c-2.63-1.74-5.44-2.9-8.68-1.79-2.27.77-3.31,2-3.19,4s1.49,3.09,3.31,3.56c1.57.39,3.2.56,4.78.94,5.52,1.33,8.8,4.78,8.8,9.67a10.66,10.66,0,0,1-8.52,10.84c-5.26,1.26-10.1.49-14.22-4.1L87,27.93c1,.52,1.94,1.08,2.93,1.52a7,7,0,0,0,6.49-.22,4.12,4.12,0,0,0,0-7.48,22.21,22.21,0,0,0-4.23-1.45,35.68,35.68,0,0,1-3.94-1.09c-3.54-1.53-6-3.93-6.24-8.09s1.57-7,4.81-9.06C91.85-1.14,100.59-.64,104.65,5Z"/><path class="b" d="M570.85,36h-6.12V13c-4.51,2.93-7.92,6.09-11.85,9l-11.82-9.29V35.94H535V.16l17.95,14,18-13.87Z"/><path class="b" d="M312.28,21.9c2.42,4.53,4.85,9.1,7.48,14.05h-6.55l-7.88-14.14h-7.07v14h-6.34V.21c6.43,0,12.77-.29,19.08.1,4.51.28,7.78,4.32,8.14,8.9C319.62,15.27,318.39,17.58,312.28,21.9ZM298.2,15.26c3.85,0,7.31.07,10.76,0,2.81-.08,4-1.32,4.2-4.13.21-2.41-1.18-4.64-3.62-4.82C305.77,6,302,6.21,298.2,6.21Z"/><path class="b" d="M403.8.37V35.92h-5.74V12.52c-4.38,3.36-8.22,6.31-12.23,9.37L374,12.78v23h-5.87V.41c2.56,1.94,4.81,3.61,7,5.34,2.84,2.23,5.65,4.5,8.47,6.76,2.12,1.7,2.38,1.7,4.49,0q7.19-5.69,14.38-11.36A14.69,14.69,0,0,1,403.8.37Z"/><path class="b" d="M474,36.09c-8.4,0-18.17-6.34-17.88-18.56C456.37,6.8,465.17.09,474.43.13a17.85,17.85,0,0,1,17.69,18.4A17.81,17.81,0,0,1,474,36.09ZM485.87,18c.4-5.87-5.38-12-11.89-11.9a12.17,12.17,0,0,0-11.72,12.14A12.06,12.06,0,0,0,474.6,30.07C480.52,30,486.46,24,485.87,18Z"/><path class="b" d="M253.67,15.2c4.4,0,8.5.07,12.59,0,3.43-.07,4.72-1.63,4.36-5-.27-2.62-1.8-3.95-4.9-4s-6.49,0-9.74,0c-.73,0-1.46-.1-2.39-.17V.14c5.12,0,10.1-.19,15,.06a8.67,8.67,0,0,1,7.75,7.06c.57,2.83.86,5.66-.59,8.37a7.39,7.39,0,0,0-.4,1.55c2.29,2.33,4.37,4.78,4.33,8.33-.07,5.78-2.43,9.92-8.33,10.42s-11.71.11-17.79.11v-6h9c2.37,0,4.75.1,7.12,0,2.64-.15,4-1.79,3.87-4.5s-1.1-3.79-4-3.86c-4-.11-8,0-12,0h-4Z"/><path class="b" d="M423.47,15.09h15V.27h5.89V35.84H438.5V21.79H423.55v14h-6V.29h5.88Z"/><path class="b" d="M337.44,5.93V15h15.19v6H337.49v9.1h17.69v5.75H331.49V.27h23.67V5.93Z"/><path class="b" d="M500.89.23h5.74V30H524.4v5.87H500.89Z"/></svg>