<svg xmlns="http://www.w3.org/2000/svg" id="Layer_1" data-name="Layer 1" viewBox="0 0 383.25 351"><defs><style>.cls-1{fill:#fff;stroke-width:0}</style></defs><path d="M383.25 334.18c-1.67 3.3-2.8 7.06-5.11 9.82-8.94 10.7-26.22 8.82-32.89-3.49-1.26-2.33-2.83-3.1-5.15-3.95-3.06-1.12-6.19-2.79-8.51-5.03-10.76-10.41-21.26-21.08-31.81-31.7-.87-.88-1.5-2-2.01-2.71-7.22 3.43-13.55 6.91-20.21 9.55-51.35 20.33-110.11-.5-137.28-48.65-1.44-2.55-2.89-3.41-5.77-3.4-37.18.1-74.35.07-111.53.07C7.86 254.7 0 246.79 0 231.6V21.27C.01 11.01 5.54 3.24 14.75.82c2.49-.66 5.18-.77 7.78-.78C42.49-.02 62.45 0 82.4.01c1.24 0 2.51-.02 3.73.21 3.01.58 4.57 2.55 4.4 5.56-.15 2.83-1.86 4.56-4.67 5-1.1.17-2.24.08-3.36.08H22.99c-9.1 0-12.01 2.95-12.02 12.16v29.32h320.35c.11-.56.28-1.02.28-1.49.02-10.1.08-20.21 0-30.31-.04-5.72-3.58-9.32-9.25-9.66-1.24-.07-2.49-.03-3.74-.03H116.14c-5.94 0-8.44-1.64-8.39-5.49.05-3.77 2.46-5.37 8.2-5.37 67.99 0 135.98-.01 203.97.03 2.6 0 5.29.09 7.78.73 9.17 2.35 14.88 10.13 14.9 20.37.06 32.31.03 64.62.01 96.93 0 4.53-1.98 7.09-5.36 7.19-3.51.11-5.61-2.57-5.62-7.26-.01-16.72 0-33.43 0-50.15v-4.24H10.97v168.45c0 8.66 2.99 11.59 11.74 11.59H133.15c-11.3-32.04-9.99-63.14 5.87-93.09 11.2-21.13 27.88-36.87 49.31-47.45 42.02-20.75 92.99-11.99 126.97 21.04 32.09 31.19 47.29 90.36 14.38 141.04 7.27 7.18 14.63 14.43 21.96 21.7 4.16 4.13 8.58 8.05 12.33 12.53 2.3 2.75 3.55 6.38 5.28 9.61.49.92.78 2.34 1.53 2.67 6.69 2.93 10.29 8.33 12.46 14.97v7.49Zm-46.06-131.11c-.15-55.63-45-100.33-100.53-100.18-55.34.15-99.93 44.99-99.87 100.42.06 55.58 44.93 100.31 100.49 100.17 55.31-.13 100.06-45.1 99.91-100.42Zm-30.02 88.32-.92-.84c.19.31.33.68.58.93 10.93 10.95 21.8 21.94 32.88 32.74 1.22 1.19 3.54 1.72 5.36 1.73 5.1.02 7.16 1.35 8.59 6.36 1.48 5.21 5.28 8.15 10 7.74 4.59-.4 8.16-3.91 8.56-8.44.46-5.17-2.26-8.78-7.73-10.26-4.72-1.27-6.07-3.52-6.19-8.37-.05-2.12-.99-4.62-2.38-6.21-3.6-4.13-7.67-7.84-11.55-11.73l-21.02-21.05c-5.53 5.94-10.85 11.67-16.18 17.39Z" class="cls-1"/><path d="M74.66 179.65c-29-.36-52.33-24.14-51.83-52.83.51-29.22 24.03-51.98 53.37-51.63 28.6.34 51.47 24.32 51.06 53.55-.4 28.08-24.35 51.27-52.6 50.91Zm-5.22-46.6H57.19c-.96 11.2 5.87 29.31 12.25 32.64v-32.64Zm-.03-43.83c-9.16 8.92-11.57 20.33-12.55 32.49h12.55V89.22Zm23.9 43.83h-12.4v33.52c9.1-9.99 11.21-21.4 12.4-33.52Zm0-11.38c-1.26-12.15-3.25-23.61-12.47-33.33v33.33h12.47Zm-58.75 11.35c-.07 9.91 9.38 24.88 16.81 27.74-2.05-8.91-4.2-18.27-6.38-27.74H34.55Zm70.56.02c-2.25 9.79-4.35 18.96-6.49 28.25 9.66-6.97 15.47-16.26 17.3-28.25h-10.82Zm-6.53-39.53c2.14 9.26 4.29 18.58 6.51 28.17h10.84c-1.97-12.14-7.79-21.44-17.34-28.17Zm-53.62 28.21c2.24-9.62 4.42-18.97 6.59-28.29-9.5 6.9-15.53 16.05-17.33 28.29h10.74ZM70.11 209.92c-11.46 0-22.92.02-34.38 0-4.46 0-7.04-2.03-7.08-5.42-.04-3.38 2.57-5.53 6.99-5.54 23.04-.03 46.08-.03 69.12 0 4.52 0 6.9 2.07 6.81 5.62-.09 3.45-2.53 5.33-7.1 5.33-11.46.02-22.92 0-34.38 0ZM45.16 233.2c-3.62 0-7.24.09-10.85-.03-3.34-.11-5.59-2.31-5.65-5.27-.06-2.94 2.17-5.38 5.46-5.43 7.36-.13 14.72-.13 22.07 0 3.44.06 5.43 2.28 5.37 5.43-.05 3.13-2.08 5.16-5.56 5.28-3.61.12-7.23.03-10.85.03ZM38.28 25.56c4.37-.08 7.94 3.29 8.04 7.59.1 4.22-3.44 7.9-7.7 8-4.32.1-7.88-3.32-7.97-7.66-.09-4.4 3.22-7.85 7.62-7.93ZM60.6 33.43c-.06-4.4 3.28-7.82 7.69-7.87 4.36-.05 7.92 3.36 7.98 7.66.06 4.23-3.51 7.88-7.76 7.94-4.31.07-7.84-3.39-7.9-7.73ZM98.21 25.56c4.37-.06 7.93 3.34 8 7.63.07 4.22-3.49 7.89-7.74 7.96-4.32.08-7.85-3.36-7.92-7.71-.07-4.4 3.26-7.83 7.67-7.89ZM147.67 203.12c.1-52.34 45.23-93.59 97.23-88.87 45.66 4.15 80.63 41.97 81.31 87.92.72 48.77-39.16 89.9-87.51 90.09-2.01 0-4.47-.85-5.9-2.18-1-.93-1.37-3.87-.63-5.01 1.04-1.6 3.24-2.98 5.17-3.37 8.03-1.6 16.45-1.85 24.18-4.31 34.38-10.93 56.18-44.15 53.52-80.52-2.6-35.53-29.86-65.11-65.37-70.91-50.1-8.19-95.08 32.63-90.7 83.12 2.82 32.49 20.33 54.9 50.43 67.45.57.24 1.17.43 1.74.67 3.65 1.5 5.21 4.21 4.14 7.2-1.14 3.18-4.14 4.31-8.08 2.94-12.82-4.47-24-11.58-33.5-21.24-17.18-17.45-25.66-38.55-26.03-62.97Z" class="cls-1"/><path d="M252.91 202.94c.09-14.96 12.3-26.87 27.37-26.72 14.7.15 26.7 12.45 26.58 27.22-.13 14.91-12.4 26.84-27.46 26.71-14.75-.13-26.58-12.3-26.49-27.22Zm42.93.24c0-8.88-6.96-15.92-15.83-16.02-8.95-.09-16.29 7.14-16.28 16.04.01 8.75 7.15 15.93 15.93 16.04 8.99.11 16.19-7.04 16.18-16.06ZM185.93 230.15c-5.32-.18-11.47-2.48-16.46-7.51-2.49-2.5-2.64-5.78-.55-8 2.17-2.3 5.23-2.39 7.96.11 3.51 3.23 7.5 4.85 12.25 4.34 2.92-.31 5.52-1.55 6.06-4.64.53-3.06-2.08-4.28-4.38-5.28-3.99-1.74-8.05-3.31-12.09-4.93-5.21-2.1-8.27-5.92-8.78-11.51-.54-5.87 1.94-10.43 6.81-13.63 7.4-4.86 20.31-3.33 26.41 3.07 2.07 2.18 2.39 4.69.55 7.11-1.96 2.57-4.45 2.51-7.35 1.33-3.37-1.37-6.89-2.73-10.45-3.1-1.54-.16-4.13 1.82-4.85 3.45-1.09 2.47 1.66 3.12 3.44 3.87 3.21 1.34 6.48 2.55 9.7 3.89 9.15 3.79 13.34 10.43 11.68 18.4-1.59 7.61-9.27 13.1-19.95 13.04ZM227.36 187.37v10.45c3.59 0 6.93-.05 10.26.01 3.82.08 6.26 2.3 6.17 5.5-.09 3.06-2.42 5.15-6.07 5.25-3.34.09-6.69.02-10.33.02v10.44c3.57 0 7.12-.03 10.68 0 4.47.04 6.97 2.06 6.96 5.52-.01 3.46-2.52 5.47-6.99 5.5-5.11.04-10.23.07-15.34-.01-4.43-.07-6.41-2.04-6.42-6.44-.04-13.6-.04-27.19 0-40.79.01-4.43 1.95-6.4 6.37-6.47 5.36-.08 10.73-.08 16.09 0 3.91.06 6.26 2.17 6.29 5.42.04 3.27-2.29 5.46-6.16 5.57-3.73.1-7.46.02-11.51.02Z" class="cls-1"/></svg>